<svg xmlns="http://www.w3.org/2000/svg" viewBox="0 0 32 32"><defs><linearGradient id="a" x1="50%" x2="50%" y1="0%" y2="100%"><stop offset="0%" stop-color="#00A5E4"/><stop offset="51.13%" stop-color="#E7F2ED"/><stop offset="100%" stop-color="#019744"/></linearGradient><linearGradient id="b" x1="50%" x2="50%" y1="0%" y2="100%"><stop offset="0%" stop-color="#019845"/><stop offset="100%" stop-color="#68B980"/></linearGradient><linearGradient id="c" x1="50%" x2="50%" y1="100%" y2="0%"><stop offset="0%" stop-color="#00B8ED"/><stop offset="100%" stop-color="#01A1E4"/></linearGradient></defs><g fill="none" fill-rule="evenodd"><path fill="url(#a)" d="M15.74 4s-2.51-2.2-6.5-2.2A9.6 9.6 0 000 11.45c0 5.9 5.19 9.44 9.17 9.44 4 0 6.6-1.96 6.94-2.35C11.25 20.7 4.5 17.46 4.5 11.5c0-6.74 6.82-9.45 11.24-7.5" transform="translate(0 5)"/><path fill="url(#b)" d="M15.18 17.66l4.73-2.57 4.9 2.54H21.9c-5.88 7.78-13.67 3.83-13.67 3.83s6.02 1.2 9.76-3.81l-2.8.01" transform="translate(0 5)"/><path fill="url(#c)" d="M7.74 1.1S9.47 0 12.66 0c3.18 0 6.11 1.14 8.92 4.45h2.89L19.6 7l-4.74-2.52 2.8-.01S14.15.24 7.74 1.1" transform="translate(0 5)"/><path fill="#2E427E" fill-rule="nonzero" d="M6.12 17.2c1.46-.02 1.27-.84 1.41-1.75.21-1.39.93-3.25 4.03-3.32v3.05c-1.5.05-.93 1.13-1.21 2.25-.35 1.33-1.3 2.69-4.25 2.68l.02-2.92zm10.54-4.98h2.9v7.66h-2.4c-.35 0-.5-.33-.5-.64v-3.4c-.03-.54-.63-.84-1.02-.85-.43 0-.94.19-1.01.84-.08 1.5 1.12 1.43 1.72 1.37v2.75c-2.09.06-2.99-.32-3.95-1.46-1.11-1.3-.88-3.93.18-5.14 1.06-1.22 3.22-1.64 4.06-.76l.02-.37zm3.48-.05l2.94.01.02 4.23c-.02.91 1.1.93 1.09 0V12.2l2.96.01v4.67c0 4.2-6.98 4.25-7-.04v-4.66zm7.61 3.89c0-3.28 1.88-4.16 4.24-4.16v3.11c-.97.01-1.25.38-1.26 1.05v3.83h-2.98v-3.83z"/></g></svg>